<svg xmlns="http://www.w3.org/2000/svg" width="150" height="150" viewBox="0 0 150 150">
  <g id="グループ_132" data-name="グループ 132" transform="translate(-1620.5 -930)">
    <g id="楕円形_9" data-name="楕円形 9" transform="translate(1620.5 930)" fill="#fcf58f" stroke="#2585eb" stroke-width="3">
      <circle cx="75" cy="75" r="75" stroke="none"/>
      <circle cx="75" cy="75" r="73.5" fill="none"/>
    </g>
    <path id="パス_10" data-name="パス 10" d="M-32.664-.96c.432-11.784.576-12.888.816-12.888.1,0,.192.168.264.432.84,2.808,2.808,9.912,3.552,11.688a2.051,2.051,0,0,0,1.848,1.44,2.264,2.264,0,0,0,2.016-1.464c.912-2.376,3.408-10.272,3.768-11.808.048-.24.192-.48.288-.48s.192.144.192.576c0,0,.216,8.832.432,12.384A1.5,1.5,0,0,0-17.88.336,1.469,1.469,0,0,0-16.272-1.1c0-.5-.7-12.864-.792-14.16a2.824,2.824,0,0,0-2.664-2.856,2.842,2.842,0,0,0-2.616,2.112C-23.232-13.56-25.056-6.984-25.9-5.04c-.048.1-.1.144-.168.144a.191.191,0,0,1-.192-.144c-.552-1.1-2.568-8.16-3.384-10.776a2.852,2.852,0,0,0-2.64-2.256c-1.248,0-2.424.984-2.544,2.976-.192,3.456-.744,10.008-.912,14.16v.072A1.307,1.307,0,0,0-34.272.36,1.476,1.476,0,0,0-32.664-.96ZM-.888-1.08A1.4,1.4,0,0,0-2.376-2.472H-2.5c-.456.024-1.992.048-3.384.048-3.264,0-3.528,0-3.648-.984a37.718,37.718,0,0,1-.072-4.2c0-.5.216-.528,3.408-.528.744,0,1.464,0,1.968.048h.144a1.454,1.454,0,0,0,1.44-1.56,1.341,1.341,0,0,0-1.512-1.44c-.432.024-1.536.024-2.592.024-2.712,0-2.832,0-2.832-.48.024-1.368,0-2.232.048-2.808.072-.888.528-.936,2.808-.936,1.584,0,3.672.024,3.7.024a1.514,1.514,0,0,0,1.608-1.512,1.456,1.456,0,0,0-1.512-1.44c-.36-.024-1.7-.048-3.048-.048-1.368,0-2.736.024-3.168.048-2.016.1-3.36,1.1-3.408,3.12-.048,1.488-.072,4.776-.072,7.68,0,1.944,0,3.744.048,4.728.1,2.28,1.584,2.976,3.84,3.144C-8.424.48-7.056.5-5.688.5S-2.928.48-2.616.456C-1.416.384-.888-.36-.888-1.08Zm2.808.1A1.414,1.414,0,0,0,3.5.336a1.39,1.39,0,0,0,1.56-1.3v-.048C4.968-3.6,4.9-10.656,4.9-12.84c0-1.056.1-1.056.12-1.056.1,0,.24.336.288.432C6.6-11.3,10.848-3.528,12.528-.888A2.654,2.654,0,0,0,14.76.384a2.3,2.3,0,0,0,2.328-2.448v-.048c-.048-1.968-.072-4.92-.072-7.8,0-2.52.024-4.992.072-6.744V-16.7A1.439,1.439,0,0,0,15.5-18.1a1.437,1.437,0,0,0-1.584,1.44c.072,2.232.168,9.5.168,11.472,0,.7,0,.816-.1.816-.072,0-.168-.144-.312-.336-1.848-2.712-5.544-9.7-7.056-12.072a2.986,2.986,0,0,0-2.472-1.3,2.207,2.207,0,0,0-2.232,2.5v.1c.048,2.064.072,4.752.072,7.488,0,2.4-.024,4.848-.072,6.984ZM28.176.552c3.408,0,7.536-2.28,7.416-7.9-.024-1.512-.048-2.952-.048-4.392,0-1.656.024-3.264.072-4.9v-.048a1.447,1.447,0,0,0-1.608-1.392,1.462,1.462,0,0,0-1.584,1.44c.024,1.032.048,2.064.048,3.12,0,2.088-.048,4.176-.048,6.24a4.4,4.4,0,0,1-4.368,4.728c-2.088,0-4.1-1.488-4.1-4.512v-1.2c0-1.68-.024-3.36-.024-5.064,0-1.1.024-2.208.048-3.312v-.048a1.447,1.447,0,0,0-1.608-1.392,1.433,1.433,0,0,0-1.56,1.44c.048,1.392.048,2.808.048,4.248,0,1.752,0,3.5-.024,5.16v.12C20.832-1.992,24.48.552,28.176.552Z" transform="translate(1695.5 1014)" fill="#2585eb"/>
  </g>
</svg>
