<svg xmlns="http://www.w3.org/2000/svg" width="19" height="28" viewBox="0 0 19 28">
  <g id="flag" transform="translate(0.289 0.289)">
    <g id="グループ_5843" data-name="グループ 5843" transform="translate(-0.289 -0.289)">
      <path id="パス_72211" data-name="パス 72211" d="M24.372,26.828H8.333V15.058H24.372l-4.158,5.885Z" transform="translate(-6.327 -11.513)" fill="#fafb1b"/>
      <path id="パス_72211_-_アウトライン" data-name="パス 72211 - アウトライン" d="M24.327,27.818H8.288a.976.976,0,0,1-.955-1V15.053a.976.976,0,0,1,.955-1H24.327a.952.952,0,0,1,.852.546,1.03,1.03,0,0,1-.083,1.039l-3.741,5.295L25.1,26.233a1.03,1.03,0,0,1,.083,1.039A.952.952,0,0,1,24.327,27.818ZM9.243,25.828H22.438l-3.037-4.3a1.029,1.029,0,0,1,0-1.18l3.037-4.3H9.243Z" transform="translate(-6.282 -11.508)" fill="#2585ea"/>
      <path id="線_3186" data-name="線 3186" d="M-.045,24.45a.976.976,0,0,1-.955-1V0A.976.976,0,0,1-.045-1,.976.976,0,0,1,.91,0V23.455A.976.976,0,0,1-.045,24.45Z" transform="translate(2.051 3.55)" fill="#2585ea"/>
      <path id="パス_72212" data-name="パス 72212" d="M4.275,6.451A2.052,2.052,0,0,1,2.269,4.361,2.052,2.052,0,0,1,4.275,2.27,2.052,2.052,0,0,1,6.281,4.361,2.052,2.052,0,0,1,4.275,6.451Z" transform="translate(-2.269 -2.27)" fill="#2585ea"/>
    </g>
  </g>
</svg>
