<svg xmlns="http://www.w3.org/2000/svg" width="150" height="150" viewBox="0 0 150 150">
  <g id="グループ_133" data-name="グループ 133" transform="translate(-1620.5 -610)">
    <g id="楕円形_11" data-name="楕円形 11" transform="translate(1620.5 610)" fill="#2585eb" stroke="#fff" stroke-width="3">
      <circle cx="75" cy="75" r="75" stroke="none"/>
      <circle cx="75" cy="75" r="73.5" fill="none"/>
    </g>
    <path id="パス_7" data-name="パス 7" d="M-39.33-9.81a2.005,2.005,0,0,0-2-2,1.99,1.99,0,0,0-1.98,2,1.974,1.974,0,0,0,1.98,1.98A1.99,1.99,0,0,0-39.33-9.81Zm.918,8.5a1.332,1.332,0,0,0,1.278-1.278A.953.953,0,0,0-37.6-3.4c-1.89-1.242-5.346-3.78-6.786-4.842a3.8,3.8,0,0,0-2.25-.846,3.413,3.413,0,0,0-2.016.72,16.077,16.077,0,0,1-2.682,1.62A1.192,1.192,0,0,0-52.2-5.67a1.152,1.152,0,0,0,1.134,1.134c.612,0,1.206-.378,3.51-2.25a1.444,1.444,0,0,1,.918-.36,2.042,2.042,0,0,1,1.188.486c1.332,1.008,2.412,2.034,3.564,3.006C-39.4-1.566-38.862-1.314-38.412-1.314Zm-2.016-8.5a.9.9,0,0,1-.9.882.868.868,0,0,1-.864-.882.868.868,0,0,1,.864-.882A.9.9,0,0,1-40.428-9.81ZM-21.348-5.8A1,1,0,0,0-20.3-6.822a1,1,0,0,0-1.044-1.044H-32.616a1.064,1.064,0,0,0-1.1,1.08,1,1,0,0,0,1.1.99Zm18.54-6.336a.906.906,0,0,0,.792-.918c0-.954-2-1.656-2.322-1.656a.87.87,0,0,0-.882.792c0,.234.162.468.522.612a6.364,6.364,0,0,1,1.4.936A.656.656,0,0,0-2.808-12.132Zm-1.71,1.692a.922.922,0,0,0,.828-.918c0-.918-2-1.71-2.322-1.71a.869.869,0,0,0-.882.774.676.676,0,0,0,.5.612A6.517,6.517,0,0,1-5-10.674.656.656,0,0,0-4.518-10.44ZM-9.612-8.064a1.13,1.13,0,0,0,1.1-1.116,1.123,1.123,0,0,0-.414-.846,6.691,6.691,0,0,0-2.9-1.584,1.04,1.04,0,0,0-1.044,1.026.825.825,0,0,0,.558.792A5.714,5.714,0,0,1-10.476-8.46,1.19,1.19,0,0,0-9.612-8.064Zm7.632-.558a1.612,1.612,0,0,0,.216-.738,1.067,1.067,0,0,0-1.08-1.062,1.086,1.086,0,0,0-.99.648c-1.8,3.582-5.6,7.218-9.162,8.046a1.109,1.109,0,0,0-.954,1.08A1.128,1.128,0,0,0-12.816.486C-11.7.486-5.544-2-1.98-8.622Zm-9.882,3.6a1.147,1.147,0,0,0,1.08-1.152,1.067,1.067,0,0,0-.612-.954,8.1,8.1,0,0,0-2.862-.918,1.075,1.075,0,0,0-1.116,1.062.818.818,0,0,0,.738.846,5.832,5.832,0,0,1,2.106.9A1.313,1.313,0,0,0-11.862-5.022Zm27.63-1.152a.892.892,0,0,0,.936-.918.911.911,0,0,0-.954-.936l-5.742.018.018-2.034H14.04a.893.893,0,0,0,.954-.9.9.9,0,0,0-.954-.918l-4,.018.018-2.016a.972.972,0,0,0-1.08-.9.938.938,0,0,0-1.044.9l.018,2.016H6.228c.414-.9.486-1.08.486-1.278,0-.54-.648-.936-1.188-.936a.719.719,0,0,0-.738.486A9.588,9.588,0,0,1,2.574-9.684a1.056,1.056,0,0,0-.36.738A.959.959,0,0,0,3.258-8.1c.45,0,.9-.072,2.016-1.944h2.7L7.992-8.01,2.268-8.028a.916.916,0,0,0-.972.936.907.907,0,0,0,.954.918h.018c3.51-.036,5.778-.072,7.038-.072v5.058c0,2.16,1.98,2.2,3.582,2.2,1.728,0,4.014-.216,4.014-3.348a1.061,1.061,0,0,0-1.134-1.08.9.9,0,0,0-.972.954c0,1.44-.864,1.6-1.89,1.6-1.368,0-1.584-.216-1.6-.7,0-.216.018-3.186.036-4.662l4.41.054ZM2.088,1.368A7.386,7.386,0,0,0,8.226-4.9c0-.054.018-.09.018-.144A1.053,1.053,0,0,0,7.11-6.012a.974.974,0,0,0-1.026.864A5.22,5.22,0,0,1,1.872-.594,1.071,1.071,0,0,0,1.026.432.945.945,0,0,0,2.088,1.368ZM32.85-2.088a1.784,1.784,0,0,0,1.386-1.62c.036-.792.054-1.818.054-2.844s-.018-2.07-.054-2.9a1.771,1.771,0,0,0-1.818-1.62c-.306-.018-.648-.036-1.008-.036.126-.324.288-.72.414-1.1h2.268a.855.855,0,0,0,.918-.864.855.855,0,0,0-.918-.864H27.756a.909.909,0,0,0-.972.9.858.858,0,0,0,.972.828h2.106c-.108.45-.2.72-.324,1.116-.126,0-.252.018-.378.018a1.643,1.643,0,0,0-1.782,1.638c-.018.864-.036,1.908-.036,2.934s.018,2.016.036,2.808a1.576,1.576,0,0,0,1.35,1.62A5.437,5.437,0,0,1,26.244-.7,1.082,1.082,0,0,0,25.308.306a.951.951,0,0,0,1.026.918c.792,0,3.96-1.494,3.96-2.52a1.009,1.009,0,0,0-.342-.7c.27,0,.558.018.846.018S31.374-2,31.644-2a.961.961,0,0,0-.306.666.805.805,0,0,0,.2.486c.162.2,1.764,2.034,2.934,2.034A1.075,1.075,0,0,0,35.532.126a.935.935,0,0,0-.738-.9,4.044,4.044,0,0,1-1.872-1.242ZM26.3-8.532c0-.36-.018-.7-.036-.99a1.629,1.629,0,0,0-1.71-1.584c-.432-.018-1.062-.036-1.692-.036-.522,0-1.026.018-1.44.036-1.656.09-1.638,1.458-1.638,2.592,0,2.808.594,2.844,3.384,2.844C25.992-5.67,26.3-6.21,26.3-8.532ZM25.11-2.952c.648-1.224.648-1.422.648-1.566,0-.5-.558-.864-1.08-.864a.809.809,0,0,0-.846.684,14.347,14.347,0,0,1-.72,2.322c-.99.27-2.07.522-3.1.72a1.029,1.029,0,0,0-.954.99.915.915,0,0,0,.99.9,42,42,0,0,0,6.48-1.872.846.846,0,0,0,.63-.792.875.875,0,0,0-.864-.864.94.94,0,0,0-.378.072Zm.522-9.252a.855.855,0,0,0,.918-.864.855.855,0,0,0-.918-.864h-5.31a.9.9,0,0,0-.954.9.851.851,0,0,0,.954.828ZM24.444-7.866c-.036.486-.2.5-1.458.5-1.3,0-1.368-.054-1.4-.486,0-.18-.018-.378-.018-.576,0-1.08.036-1.1,1.584-1.1,1.26,0,1.3.144,1.3.522ZM22.77-3.24c0-.486-.81-2.016-1.62-2.016a.858.858,0,0,0-.9.756.769.769,0,0,0,.18.468,3.135,3.135,0,0,1,.558,1.116.835.835,0,0,0,.81.63A.963.963,0,0,0,22.77-3.24Zm9.738-2.754H29.07v-1.1h3.438Zm-.036,1.962c-.036.612-.144.63-1.872.63-1.134,0-1.494-.072-1.494-.612l-.018-.522h3.384Zm0-4.518H29.088c0-.162.018-.306.018-.468.036-.612.252-.63,1.6-.63,1.656,0,1.728.018,1.764.612Zm19.62,7.416a1.29,1.29,0,0,0,1.26-1.278,1.043,1.043,0,0,0-.594-.954,27.984,27.984,0,0,1-3.618-2.34c-1.242-.918-2.448-1.872-3.618-2.7a3.644,3.644,0,0,0-2.124-.81,3.534,3.534,0,0,0-2.052.756c-.9.63-2.358,1.476-2.7,1.656A1.167,1.167,0,0,0,37.908-5.8,1.241,1.241,0,0,0,39.15-4.662a1.288,1.288,0,0,0,.684-.2,26.228,26.228,0,0,0,2.628-2.034,1.489,1.489,0,0,1,.918-.414c.558,0,.792.2,4.41,3.33C48.852-3.06,51.084-1.134,52.092-1.134ZM-13.1,18.8c1.17,0,2.3.018,3.4.018,1.89,0,3.636-.018,5.148-.054,1.44-.036,2-.4,2-2.214,0-1.044-.018-2.088-2.034-2.142-1.3-.036-2.88-.036-4.446-.036s-3.114,0-4.356.036c-1.17.036-1.746.648-1.746,1.53v.036c.018,1.116.072,2.124.072,3.1A9.474,9.474,0,0,1-16.9,25.352a1.055,1.055,0,0,0-.234.63.935.935,0,0,0,1.008.846,1.405,1.405,0,0,0,1.134-.612C-13.41,24.056-13.14,21.5-13.1,18.8Zm10.17,3.69a.812.812,0,0,0,.81-.882.857.857,0,0,0-.828-.918l-4.284.036v-.972a.889.889,0,0,0-.972-.864.914.914,0,0,0-1.008.882v.954l-3.114-.036h-.018a.834.834,0,0,0-.846.9.845.845,0,0,0,.846.9h.018l2.952-.054c-.432,1.728-1.692,2.5-4.158,2.952a.959.959,0,0,0-.9.936,1,1,0,0,0,1.026.99,7.164,7.164,0,0,0,5.292-3.2A8.129,8.129,0,0,0-2.88,27.188a1.029,1.029,0,0,0,1.1-1.008A1.027,1.027,0,0,0-2.7,25.172c-2.016-.414-3.762-1.134-4.446-2.736l4.194.054Zm.45-9a.844.844,0,0,0,.9-.882.84.84,0,0,0-.9-.864H-15.39a.883.883,0,0,0-.972.864.886.886,0,0,0,.972.882Zm-10.6,3.078a.539.539,0,0,1,.576-.594c1.3-.018,2.754-.036,4.212-.036,3.6,0,3.636,0,3.708.36a1.412,1.412,0,0,1,.036.252,1.389,1.389,0,0,1-.036.27c-.054.36-.45.36-4.878.36-1.134,0-2.34,0-3.618-.018ZM10.8,24.488A2.655,2.655,0,0,0,7.938,22.13,2.122,2.122,0,0,0,5.58,24.092c0,1.314,1.386,2.376,3.546,2.376,3.69,0,5.436-2.484,5.436-4.482,0-2.16-2-3.42-4.1-3.42a5.353,5.353,0,0,0-2.5.612c.63-.576,1.26-1.116,1.962-1.728,2.124-1.908,2.394-2.286,2.394-2.79a1.594,1.594,0,0,0-1.692-1.386,2.518,2.518,0,0,0-.612.09,26.151,26.151,0,0,1-3.852.918.9.9,0,0,0-.864.9.988.988,0,0,0,1.044.99,10.971,10.971,0,0,0,3.1-.972.862.862,0,0,1,.2-.09c.018,0,.036,0,.036.018a.544.544,0,0,1-.108.162A57.694,57.694,0,0,1,4.3,20.87a1.149,1.149,0,0,0-.4.792,1.107,1.107,0,0,0,1.134.99.906.906,0,0,0,.792-.432,5.266,5.266,0,0,1,4.176-2.052c.81,0,2.5.216,2.5,1.89A2.835,2.835,0,0,1,10.8,24.488Zm-1.71.36c-.9,0-1.818-.2-1.818-.774,0-.27.252-.486.7-.486A1.137,1.137,0,0,1,9.09,24.812Z" transform="translate(1695.5 679)" fill="#fff"/>
  </g>
</svg>
